<?xml version="1.0" encoding="utf-8"?>
<!-- Generator: Adobe Illustrator 19.0.0, SVG Export Plug-In . SVG Version: 6.00 Build 0)  -->
<!DOCTYPE svg PUBLIC "-//W3C//DTD SVG 1.1//EN" "http://www.w3.org/Graphics/SVG/1.1/DTD/svg11.dtd">
<svg version="1.1" id="Layer_1" xmlns="http://www.w3.org/2000/svg" xmlns:xlink="http://www.w3.org/1999/xlink" x="0px" y="0px"
	 width="230px" height="85px" viewBox="-17 -20 230 85" style="enable-background:new -17 -20 230 85;" xml:space="preserve">
<style type="text/css">
	.st0{fill:#78B643;}
	.st1{fill:#A7A9AC;}
	.st2{fill:#58595B;}
</style>
<g>
	<path class="st0" d="M-5.1,32.4v18.2l38.2-29.9c-0.3,1.7-0.5,3.4-0.5,5.2L-17,64.7h5.3l44.7-35c0.2,1.4,0.5,2.7,1,4l-39.5,31h5.3
		L35.2,37c0.5,1.2,1.2,2.3,1.8,3.4L5.8,64.7h5.3L38.9,43c0.8,1,1.7,1.9,2.6,2.7l-24.3,19h5.3l21.6-17c1.1,0.7,2.2,1.5,3.5,2.1
		L28.6,64.7h5.3L51,51.4c2.6,1,5.6,1.4,8.6,1.4c0.7,0,1.5,0,2.2-0.1v-72.5L-5.1,32.4z"/>
	<g>
		<path class="st1" d="M168.5,45.2h1.6v-6.3c0-1.8,1.3-3,3-3c1.7,0,2.7,1.2,2.7,2.9v6.4h1.6v-6.8c0-2.3-1.5-4-3.9-4
			c-1.7,0-2.9,0.8-3.4,1.9v-1.8h-1.6L168.5,45.2L168.5,45.2z M156.9,39.9c0-2.3,1.7-4.1,4-4.1s4,1.8,4,4.1s-1.7,4.1-4,4.1
			C158.6,44,156.9,42.2,156.9,39.9 M155.3,39.9c0,3.3,2.5,5.6,5.6,5.6c3.1,0,5.6-2.3,5.6-5.6s-2.5-5.6-5.6-5.6
			S155.3,36.7,155.3,39.9 M151.8,45.2h1.6V34.6h-1.6V45.2z M152.6,33.4c0.5,0,1.1-0.4,1.1-1.1c0-0.6-0.5-1.1-1.1-1.1
			c-0.5,0-1.1,0.4-1.1,1.1C151.5,33,152,33.4,152.6,33.4 M146.1,45.2h1.6v-9.1h2.3v-1.5h-2.3v-4h-1.6v4h-1.4v1.5h1.4V45.2z
			 M133.9,39.9c0-2.3,1.6-4.1,3.8-4.1s3.9,1.8,3.9,4.1s-1.7,4.1-3.9,4.1C135.6,44,133.9,42.2,133.9,39.9 M132.4,39.9
			c0,3.3,2.4,5.6,5.4,5.6c2.1,0,3.3-1,3.7-1.9v1.6h1.6V34.6h-1.6v1.6c-0.5-1-1.7-1.9-3.7-1.9C134.7,34.3,132.4,36.7,132.4,39.9
			 M121.3,39.9c0-2.3,1.6-4.1,3.8-4.1c2.2,0,3.9,1.8,3.9,4.1s-1.7,4.1-3.9,4.1C123,44,121.3,42.2,121.3,39.9 M119.8,39.9
			c0,3.3,2.4,5.6,5.4,5.6c2.1,0,3.3-1,3.7-1.9v1.6h1.6V30.6h-1.6v5.6c-0.5-1-1.7-1.9-3.7-1.9C122.1,34.3,119.8,36.7,119.8,39.9
			 M109.1,45.2h1.6v-6.3c0-1.8,1.3-3,3-3c1.7,0,2.7,1.2,2.7,2.9v6.4h1.6v-6.8c0-2.3-1.5-4-3.9-4c-1.7,0-2.9,0.8-3.4,1.9v-1.8h-1.6
			C109.1,34.5,109.1,45.2,109.1,45.2z M97.9,41c0,2.9,1.9,4.3,4.3,4.3c2.5,0,4.5-1.5,4.5-4.4v-6.3h-1.5v6.3c0,2-1.2,3.1-2.9,3.1
			s-2.9-1.1-2.9-3.1v-6.3h-1.7V41z M86.5,39.9c0-2.3,1.7-4.1,4-4.1c2.3,0,4,1.8,4,4.1s-1.7,4.1-4,4.1C88.2,44,86.5,42.2,86.5,39.9
			 M85,39.9c0,3.3,2.5,5.6,5.6,5.6s5.6-2.3,5.6-5.6s-2.5-5.6-5.6-5.6S85,36.7,85,39.9 M76.5,45.2h1.6v-6.9h5.5v-1.5h-5.5v-4.8h6
			v-1.5h-7.6V45.2z"/>
		<path class="st2" d="M204.3,24.2h3.3v-5.5l5.4-9.2h-3.5l-3.5,6l-3.5-6h-3.5l5.4,9.2v5.5H204.3z M190.3,24.2h3.3V12.6h3.9v-3h-11.1
			v3h3.9V24.2z M180.7,24.2h3.3V9.7h-3.3V24.2z M163.7,24.2h3.2v-9.3l7.2,9.3h2.6V9.7h-3.2v9.1l-7-9.1h-2.9V24.2z M147.5,18.3
			c0,4.1,2.9,6.1,6.2,6.1s6.2-2,6.2-6.1V9.7h-3.3V18c0,2.5-1.2,3.5-3,3.5c-1.8,0-3-1-3-3.5V9.7h-3.3L147.5,18.3L147.5,18.3z
			 M128.4,24.2h3.1v-8.9l4.6,6.9l4.6-6.9v8.9h3.1V9.7h-2.7l-5,7.5l-5-7.5h-2.7L128.4,24.2L128.4,24.2z M109,24.2h3.1v-8.9l4.6,6.9
			l4.6-6.9v8.9h3.1V9.7h-2.7l-5,7.5l-5-7.5H109C109,9.7,109,24.2,109,24.2z M93.9,17c0-2.5,2-4.6,4.5-4.6c2.5,0,4.5,2.1,4.5,4.6
			c0,2.5-2,4.6-4.5,4.6C95.9,21.6,93.9,19.6,93.9,17 M90.7,17c0,4.2,3.5,7.6,7.8,7.6c4.3,0,7.8-3.3,7.8-7.6c0-4.2-3.5-7.6-7.8-7.6
			C94.1,9.5,90.7,12.7,90.7,17 M75.2,17c0,4.3,3.5,7.5,7.8,7.5c2.3,0,4.4-1.1,5.9-2.7l-2.2-1.9c-1,1.1-2.2,1.7-3.7,1.7
			c-2.6,0-4.6-1.9-4.6-4.5s2-4.6,4.6-4.6c1.5,0,2.7,0.6,3.7,1.7l2.2-1.9c-1.5-1.7-3.5-2.7-5.9-2.7C78.7,9.5,75.2,12.6,75.2,17"/>
		<path class="st1" d="M152.3-3c0-2.3,1.6-4.1,3.8-4.1S160-5.3,160-3s-1.7,4.1-3.9,4.1C153.8,1.1,152.3-0.7,152.3-3 M150.7-3
			c0,3.3,2.4,5.6,5.4,5.6c2.1,0,3.3-1,3.7-1.9v1.6h1.6V-8.3h-1.6v1.6c-0.5-1-1.7-1.9-3.7-1.9C153.1-8.6,150.7-6.3,150.7-3
			 M147.2,2.3h1.6V-8.3h-1.6V2.3z M148-9.5c0.5,0,1.1-0.4,1.1-1.1s-0.5-1.1-1.1-1.1c-0.5,0-1.1,0.4-1.1,1.1
			C147-9.9,147.4-9.5,148-9.5 M136.1,2.3h1.6v-6.3c0-1.8,1.3-3,3-3c1.7,0,2.7,1.2,2.7,2.9v6.4h1.6v-6.8c0-2.3-1.5-4-3.9-4
			c-1.7,0-2.9,0.8-3.4,1.9v-1.8h-1.6L136.1,2.3L136.1,2.3z M128.5,2.3h1.6v-6.1c0-1.8,1.2-3,2.9-3c0.4,0,0.8,0,1.1,0.1v-1.7
			c-0.1,0-0.4,0-0.6,0c-1.6,0-2.7,0.8-3.3,1.9v-1.8h-1.6L128.5,2.3L128.5,2.3z M116.9-3c0-2.3,1.7-4.1,4-4.1c2.3,0,4,1.8,4,4.1
			s-1.7,4.1-4,4.1C118.7,1.1,116.9-0.7,116.9-3 M115.4-3c0,3.3,2.5,5.6,5.6,5.6c3.1,0,5.6-2.3,5.6-5.6S124-8.6,121-8.6
			C117.8-8.6,115.4-6.3,115.4-3 M111,2.3h1.6v-9.1h2v-1.5h-2v-1.1c0-1.4,0.4-1.8,1.5-1.8c0.3,0,0.6,0,1,0.1v-1.6
			c-0.2,0-0.5-0.1-0.8-0.1c-0.6,0-1.5,0-2.1,0.6c-0.7,0.5-1.1,1.3-1.1,2.9v0.8h-1.7v1.5h1.7V2.3z M105.9,2.3h1.6V-8.3h-1.6V2.3z
			 M106.7-9.5c0.5,0,1.1-0.4,1.1-1.1s-0.5-1.1-1.1-1.1c-0.5,0-1.1,0.4-1.1,1.1C105.7-9.9,106.2-9.5,106.7-9.5 M102,2.3h1.6v-14.6
			H102V2.3z M90.4-3c0-2.3,1.6-4.1,3.8-4.1c2.2,0,3.9,1.8,3.9,4.1s-1.7,4.1-3.9,4.1C92,1.1,90.4-0.7,90.4-3 M89-3
			c0,3.3,2.4,5.6,5.4,5.6c2.1,0,3.3-1,3.7-1.9v1.6h1.6V-8.3h-1.6v1.6c-0.5-1-1.7-1.9-3.7-1.9C91.3-8.6,89-6.3,89-3 M75.2-5
			c0,4.3,3.4,7.6,7.6,7.6c2.2,0,4.2-1,5.6-2.5L87.3-1c-1.1,1.3-2.6,2-4.5,2c-3.5,0-5.9-2.6-5.9-6c0-3.5,2.5-6,5.9-6
			c1.8,0,3.4,0.7,4.4,2l1.2-1.1c-1.4-1.6-3.4-2.4-5.6-2.4C78.6-12.6,75.2-9.5,75.2-5"/>
	</g>
</g>
</svg>
